<svg data-v-423bf9ae="" xmlns="http://www.w3.org/2000/svg" viewBox="0 0 445 90" class="iconLeft"><!----><!----><!----><g data-v-423bf9ae="" id="5990e030-b552-4705-84a2-d10622b06f0b" fill="white" transform="matrix(5.612721889848748,0,0,5.612721889848748,116.10176572172722,3.1010302358456983)"><path d="M4.13 3.61L1.09 3.60L-0.05 5.11L0.18 5.25L0.56 4.90L1.96 4.89L1.47 5.18Q1.58 11.31 1.26 11.60L1.26 11.60L0.55 12.52L0.66 12.68L4.34 12.69Q4.94 12.22 6.03 11.00L6.03 11.00Q7.26 9.95 7.14 8.96Q7.02 7.97 6.31 7.57Q5.60 7.17 4.68 7.25L4.68 7.25Q5.91 6.45 5.91 5.14Q5.92 3.84 4.13 3.61L4.13 3.61ZM2.78 4.79Q4.60 4.61 4.79 5.65Q4.97 6.69 4.23 7.16L4.23 7.16L2.79 7.14L2.78 4.79ZM4.32 8.52Q5.17 8.51 5.62 8.96Q6.07 9.41 5.84 10.22Q5.61 11.04 5.17 11.22L5.17 11.22L1.84 11.22L2.76 10.58L2.76 8.52L4.32 8.52ZM9.88 6.52Q9.05 7.02 8.29 8.07Q7.53 9.11 7.48 9.85Q7.42 10.59 8.20 11.61Q8.98 12.63 9.41 12.68L9.41 12.68Q10.18 12.04 10.66 11.63L10.66 11.63Q10.84 12.37 11.73 12.73L11.73 12.73L13.08 11.09L12.85 10.94L12.56 11.26Q12.21 11.42 11.99 11.14Q11.77 10.87 11.79 10.47L11.79 10.47L11.79 7.18Q11.81 6.68 12.16 6.51L12.16 6.51L9.88 6.52ZM9.08 7.60L10.75 7.60L10.51 8.07L10.51 8.32L10.51 11.25Q9.91 11.72 9.03 10.45Q8.16 9.17 9.08 7.60L9.08 7.60ZM14.34 6.51L13.06 7.80L13.22 8.00L13.62 7.64Q14.17 7.67 14.12 8.76L14.12 8.76L14.12 11.57Q14.14 12.58 14.93 12.71L14.93 12.71L16.22 11.44L16.08 11.31L15.69 11.64Q15.42 11.53 15.44 10.62L15.44 10.62L15.44 8.05L15.95 7.63Q17.12 7.59 17.14 9.03L17.14 9.03L17.13 11.54Q17.12 12.54 17.90 12.69L17.90 12.69L19.20 11.43L19.06 11.25L18.66 11.62Q18.42 11.59 18.43 10.81L18.43 10.81L18.44 8.10Q18.42 7.18 17.85 6.79Q17.27 6.41 16.67 6.51L16.67 6.51L15.38 7.73Q15.24 6.64 14.34 6.51L14.34 6.51ZM21.33 3.00Q19.53 4.17 19.62 6.06L19.62 6.06L19.62 11.42Q19.68 12.35 20.47 12.71L20.47 12.71L21.99 11.41L21.81 11.22Q20.80 12.15 21.03 9.77L21.03 9.77Q21.29 9.55 21.63 9.77Q21.96 9.99 22.65 11.36Q23.34 12.74 23.84 12.74L23.84 12.74L25.17 11.23L24.96 11.05Q24.38 11.89 23.76 10.46Q23.13 9.03 22.39 8.96L22.39 8.96Q22.80 8.73 23.42 8.11Q24.04 7.49 23.76 6.52L23.76 6.52L22.22 7.51Q22.51 8.37 22.06 8.69Q21.62 9.00 20.94 9.29L20.94 9.29L20.94 5.26Q20.95 3.53 21.53 3.12L21.53 3.12L21.33 3.00ZM30.26 2.12Q28.98 3.21 28.89 3.83Q28.79 4.45 29.13 4.98L29.13 4.98Q28.80 5.30 28.65 5.74L28.65 5.74L27.62 8.15L26.59 8.15L25.74 9.58L26.01 9.76L26.28 9.39L27.17 9.39Q26.74 10.54 25.22 12.68L25.22 12.68L27.27 12.67L28.33 11.09L26.74 11.05Q27.50 10.75 27.97 9.39L27.97 9.39L29.57 9.39L30.44 8.39L31.79 11.70Q32.20 12.63 33.05 12.71L33.05 12.71L34.16 10.78L33.88 10.60L33.40 11.32Q32.99 11.27 32.81 10.81L32.81 10.81L30.03 3.60Q29.77 3.04 30.36 2.30L30.36 2.30L30.26 2.12ZM29.42 5.62L30.39 8.18L28.36 8.18L29.42 5.62ZM35.42 6.51L34.14 7.80L34.30 8.00L34.71 7.64Q35.25 7.67 35.20 8.76L35.20 8.76L35.20 11.57Q35.22 12.58 36.01 12.71L36.01 12.71L37.30 11.44L37.17 11.31L36.77 11.64Q36.50 11.53 36.52 10.62L36.52 10.62L36.52 8.05L37.03 7.63Q38.21 7.59 38.22 9.03L38.22 9.03L38.21 11.54Q38.21 12.54 38.98 12.69L38.98 12.69L40.28 11.43L40.14 11.25L39.74 11.62Q39.50 11.59 39.51 10.81L39.51 10.81L39.52 8.10Q39.50 7.18 38.93 6.79Q38.36 6.41 37.75 6.51L37.75 6.51L36.46 7.73Q36.32 6.64 35.42 6.51L35.42 6.51ZM43.72 5.07L43.72 5.07L43.72 6.54L42.30 6.54Q40.67 8.91 40.55 9.56Q40.43 10.20 40.62 10.75Q40.81 11.31 41.52 12.11Q42.23 12.91 42.59 12.61L42.59 12.61L43.75 11.57Q44.06 12.68 44.76 12.67L44.76 12.67L45.72 11.48L46.05 11.10L45.85 10.87L45.37 11.38Q44.99 11.27 45.00 9.72L45.00 9.72L45.00 5.13Q44.93 3.61 45.60 3.19L45.60 3.19L45.40 3.07Q43.83 3.72 43.72 5.07ZM43.19 7.98L43.75 7.23L43.75 11.16Q43.00 11.41 42.36 10.48Q41.71 9.56 41.65 8.93Q41.60 8.31 41.93 7.98L41.93 7.98L43.19 7.98ZM50.16 3.52Q49.66 3.60 48.72 4.40Q47.78 5.20 47.37 5.76Q46.95 6.32 46.57 7.12Q46.19 7.92 46.35 9.06Q46.50 10.20 47.61 11.46Q48.72 12.72 50.37 12.76L50.37 12.76L51.41 11.94L51.41 12.73L51.62 12.81L52.70 11.69Q52.55 8.78 52.89 8.49L52.89 8.49L53.48 7.54L53.36 7.37L50.89 7.36L49.51 9.02L49.60 9.13Q50.14 8.72 50.57 8.65L50.57 8.65L52.22 8.64Q51.54 8.83 51.43 10.05L51.43 10.05L51.43 11.40Q50.16 11.20 49.25 10.62Q48.33 10.04 47.92 8.92Q47.52 7.81 47.76 6.22L47.76 6.22Q48.17 4.78 49.58 4.84L49.58 4.84Q51.48 5.02 51.07 6.43L51.07 6.43L51.19 6.47Q52.56 5.27 52.60 4.93Q52.63 4.59 52.10 4.08Q51.57 3.58 51.11 3.51Q50.65 3.45 50.16 3.52ZM55.79 6.60Q55.45 6.77 54.68 7.54Q53.92 8.31 53.77 9.52Q53.63 10.73 54.46 11.70Q55.28 12.67 55.90 12.75Q56.52 12.82 56.99 12.39Q57.46 11.96 58.07 10.90Q58.69 9.84 58.58 8.90Q58.47 7.96 57.81 7.30Q57.15 6.65 56.65 6.54Q56.14 6.43 55.79 6.60ZM55.46 7.67Q56.12 7.57 56.82 8.30Q57.53 9.03 57.62 9.85Q57.71 10.67 57.37 11.09Q57.03 11.50 56.37 11.43Q55.70 11.35 55.15 10.31Q54.59 9.27 54.70 8.52Q54.80 7.78 55.46 7.67Z"></path></g><!----><g data-v-423bf9ae="" id="6f4bbe0b-3117-4684-a610-c3f349489ce6" transform="matrix(2.994410458179972,0,0,2.994410458179972,0.08943266912044834,-1.9385669710569857)" stroke="none" fill="white"><path d="M17.572 23.933l4.106 7.095L32 13.189h-8.981V7.582L11.51.972 0 7.582v13.222l11.51 6.611 6.062-3.482zm10.96-8.744l-6.855 11.846-6.855-11.846h13.71z"></path></g><!----></svg>